<svg width="25" height="25" viewBox="0 0 812 812" fill="none" xmlns="http://www.w3.org/2000/svg">
<path fill-rule="evenodd" clip-rule="evenodd" d="M406 812C630.228 812 812 630.228 812 406C812 181.772 630.228 0 406 0C181.772 0 0 181.772 0 406C0 630.228 181.772 812 406 812ZM583 394.451V351.353H477.186L551.494 239H495.317L405.851 374.536L316.683 239H260.506L334.814 351.353H229V394.748H583V394.451ZM550.305 593L475.106 479.161H583V436.36H229V479.458H336.894L261.695 593H317.574L405.851 459.247L494.128 593H550.305Z" fill="#1A202C"/>
</svg>
