<?xml version="1.0" standalone="no"?>
<!DOCTYPE svg PUBLIC "-//W3C//DTD SVG 20010904//EN"
 "http://www.w3.org/TR/2001/REC-SVG-20010904/DTD/svg10.dtd">
<svg width="35" height="35" viewBox="25 0 300 200">
<g transform="translate(0.000000,201.000000) scale(0.100000,-0.100000)">
<path d="M2252 1840 c-50 -31 -74 -76 -69 -133 l4 -49 -235 -211 c-170 -153 -242 -211 -256 -209 -67 10 -103 6 -132 -15 l-32 -23 -203 86 c-112 47 -210 88 -216 91 -7 3 -13 14 -13 25 0 66 -67 128 -139 128 -80 0 -128 -44 -140 -128 l-6 -46 -220 -132 c-213 -128 -221 -132 -247 -118 -68 35 -161 5 -193 -63 -44 -91 23 -193 127 -193 75 0 125 47 136 127 l7 47 220 132 c213 128 221 132 247 118 40 -21 105 -17 145 7 l34 21 214 -88 213 -89 6 -39 c8 -44 58 -101 99 -112 96 -23 191 65 173 161 -7 34 -5 35 230 247 141 126 244 212 253 210 82 -18 136 -3 174 49 84 115 -59 273 -181 199z"/>
<path d="M2260 982 c-47 -26 -70 -60 -78 -115 l-7 -47 -220 -133 -220 -132 -35 17 c-48 25 -91 22 -134 -7 l-37 -25 -214 87 -213 88 -6 39 c-8 46 -60 101 -105 111 -44 10 -106 -11 -135 -46 -14 -17 -26 -36 -26 -42 -1 -29 -27 -38 -218 -77 l-202 -42 -34 30 c-94 82 -231 23 -231 -98 0 -149 195 -190 259 -54 l18 39 207 42 206 42 32 -31 c45 -44 113 -50 165 -14 l37 25 212 -88 212 -87 14 -46 c29 -101 138 -139 218 -76 31 24 55 74 55 115 0 26 18 39 221 161 l222 133 32 -16 c118 -55 245 64 190 179 -35 73 -119 104 -185 68z"/>
</g>
</svg>
